<svg xmlns="http://www.w3.org/2000/svg" width="920" height="520" viewBox="0 0 920 520">
<rect width="100%" height="100%" fill="#ffffff"/>
<text x="80" y="42" font-family="Arial, sans-serif" font-size="24" font-weight="700" fill="#1f2933">Inventory Status Distribution</text>
<line x1="80" y1="425" x2="890" y2="425" stroke="#9aa4af" stroke-width="1"/>
<line x1="80" y1="70" x2="80" y2="425" stroke="#9aa4af" stroke-width="1"/>
<line x1="80" y1="425.0" x2="890" y2="425.0" stroke="#d8dee6" stroke-width="1" stroke-dasharray="3 5"/>
<text x="68" y="429.0" text-anchor="end" font-family="Arial, sans-serif" font-size="12" fill="#56616f">0</text>
<line x1="80" y1="341.5" x2="890" y2="341.5" stroke="#d8dee6" stroke-width="1" stroke-dasharray="3 5"/>
<text x="68" y="345.5" text-anchor="end" font-family="Arial, sans-serif" font-size="12" fill="#56616f">4</text>
<line x1="80" y1="257.9" x2="890" y2="257.9" stroke="#d8dee6" stroke-width="1" stroke-dasharray="3 5"/>
<text x="68" y="261.9" text-anchor="end" font-family="Arial, sans-serif" font-size="12" fill="#56616f">8</text>
<line x1="80" y1="174.4" x2="890" y2="174.4" stroke="#d8dee6" stroke-width="1" stroke-dasharray="3 5"/>
<text x="68" y="178.4" text-anchor="end" font-family="Arial, sans-serif" font-size="12" fill="#56616f">12</text>
<line x1="80" y1="90.9" x2="890" y2="90.9" stroke="#d8dee6" stroke-width="1" stroke-dasharray="3 5"/>
<text x="68" y="94.9" text-anchor="end" font-family="Arial, sans-serif" font-size="12" fill="#56616f">16</text>
<rect x="80.0" y="70.0" width="120.0" height="355.0" fill="#2f6f4e" rx="3"/>
<text x="140.0" y="62.0" text-anchor="middle" font-family="Arial, sans-serif" font-size="13" font-weight="700" fill="#1f2933">17</text>
<text x="140.0" y="453" text-anchor="middle" font-family="Arial, sans-serif" font-size="13" fill="#1f2933">recorded</text>
<rect x="218.0" y="216.2" width="120.0" height="208.8" fill="#c75643" rx="3"/>
<text x="278.0" y="208.2" text-anchor="middle" font-family="Arial, sans-serif" font-size="13" font-weight="700" fill="#1f2933">10</text>
<text x="278.0" y="453" text-anchor="middle" font-family="Arial, sans-serif" font-size="13" fill="#1f2933">complete</text>
<rect x="356.0" y="341.5" width="120.0" height="83.5" fill="#d7a22a" rx="3"/>
<text x="416.0" y="333.5" text-anchor="middle" font-family="Arial, sans-serif" font-size="13" font-weight="700" fill="#1f2933">4</text>
<text x="416.0" y="453" text-anchor="middle" font-family="Arial, sans-serif" font-size="13" fill="#1f2933">unknown</text>
<rect x="494.0" y="383.2" width="120.0" height="41.8" fill="#7b68aa" rx="3"/>
<text x="554.0" y="375.2" text-anchor="middle" font-family="Arial, sans-serif" font-size="13" font-weight="700" fill="#1f2933">2</text>
<text x="554.0" y="453" text-anchor="middle" font-family="Arial, sans-serif" font-size="13" fill="#1f2933">missing</text>
<rect x="632.0" y="383.2" width="120.0" height="41.8" fill="#2f6f88" rx="3"/>
<text x="692.0" y="375.2" text-anchor="middle" font-family="Arial, sans-serif" font-size="13" font-weight="700" fill="#1f2933">2</text>
<text x="692.0" y="453" text-anchor="middle" font-family="Arial, sans-serif" font-size="13" fill="#1f2933">no_label</text>
<rect x="770.0" y="404.1" width="120.0" height="20.9" fill="#777777" rx="3"/>
<text x="830.0" y="396.1" text-anchor="middle" font-family="Arial, sans-serif" font-size="13" font-weight="700" fill="#1f2933">1</text>
<text x="830.0" y="453" text-anchor="middle" font-family="Arial, sans-serif" font-size="13" fill="#1f2933">mixed</text>
<text x="20" y="285" transform="rotate(-90 20 285)" text-anchor="middle" font-family="Arial, sans-serif" font-size="13" fill="#56616f">Asset count</text>
</svg>